<svg xmlns="http://www.w3.org/2000/svg" viewBox="0 0 64 64" width="64" height="64">
  <style>
    :root { --bg: #FBF9F4; --fg: #235A43; }
    @media (prefers-color-scheme: dark) {
      :root { --bg: #241F1D; --fg: #FBF9F4; }
    }
  </style>
  <rect width="64" height="64" rx="14" fill="var(--bg)"/>
  <path transform="translate(11.862 51.174) scale(0.05510 -0.05510)"
        fill="var(--fg)" d="M115 424V292Q115 221 135 175Q163 110 220.0 69.0Q277 28 348 23V348H653V282Q653 218 634 168Q603 85 530.0 35.0Q457 -15 365 -15Q278 -15 206.5 32.5Q135 80 102 159Q78 215 78 292V424Q78 502 116.5 568.0Q155 634 221.0 672.5Q287 711 365 711Q430 711 484.0 689.5Q538 668 576 627Q607 593 626.5 551.0Q646 509 646 466H610Q609 503 591.5 539.0Q574 575 547 604Q480 674 365 674Q298 674 240.5 640.5Q183 607 149.0 549.5Q115 492 115 424ZM616 312H384V23Q456 28 513.5 68.5Q571 109 598 176Q616 223 616 282Z"/>
</svg>
